<svg width="415" height="1513" viewBox="0 0 415 1513" fill="none" xmlns="http://www.w3.org/2000/svg">
<g opacity="0.05">
<path fill-rule="evenodd" clip-rule="evenodd" d="M301.153 549.549C250.826 525.885 236.762 492.127 200.853 492.127C170.2 492.127 145.083 515.804 145.083 549.549C145.083 583.288 170.2 606.961 200.853 606.961C236.762 606.961 250.826 573.217 301.153 549.549Z" fill="#00BAF2"/>
<path fill-rule="evenodd" clip-rule="evenodd" d="M20.2266 549.545C20.2266 511.74 30.7593 474.856 50.6832 442.879L51.9769 440.794L150.576 440.794L140.433 448.799C109.488 473.239 91.7442 509.964 91.7442 549.545C91.7442 619.928 148.159 677.186 217.505 677.186C286.852 677.186 343.271 619.928 343.271 549.545C343.271 483.969 294.846 429.396 230.63 422.604L226.673 422.191L226.673 349.551L231.4 349.883C334.224 357.183 414.779 444.887 414.779 549.545C414.779 659.946 326.283 749.762 217.505 749.762C108.727 749.762 20.2266 659.946 20.2266 549.545Z" fill="white"/>
<path fill-rule="evenodd" clip-rule="evenodd" d="M209.691 266.343C209.691 245.223 192.766 228.033 171.947 228.033C151.142 228.033 134.208 245.223 134.208 266.343L134.208 295.576C108.142 271.958 91.9606 237.659 91.9606 200.435C91.9606 130.185 148.286 73.0263 217.507 73.0263C286.732 73.0263 343.053 130.185 343.053 200.435C343.053 231.122 332.158 260.76 312.364 283.915C306.688 290.556 303.559 299.051 303.559 307.837C303.559 318.427 308.071 328.48 315.94 335.421C323.205 341.813 332.485 344.957 342.064 344.271C351.656 343.59 360.394 339.142 366.692 331.778C397.843 295.367 415 248.717 415 200.435C415 89.9121 326.406 -3.87259e-06 217.507 -8.63271e-06C108.608 -1.33928e-05 20.0044 89.9121 20.0044 200.435C20.0044 257.584 44.1718 310.036 83.102 346.942L43.8674 346.942C23.0617 346.942 6.11449 364.128 6.11449 385.252C6.11449 406.372 23.0617 423.553 43.8674 423.553L209.691 423.553L209.691 266.343Z" fill="white"/>
<path fill-rule="evenodd" clip-rule="evenodd" d="M223.594 1408.99C223.594 1436.17 206.154 1459.07 182.215 1466.47L182.215 1351.18C206.065 1358.83 223.594 1381.96 223.594 1408.99ZM126.007 1453.04C114.391 1442.1 107.027 1426.44 107.027 1408.99C107.027 1382.1 123.63 1359.61 146.642 1351.64L146.642 1510.78C152.623 1511.95 158.782 1512.59 165.089 1512.59C219.959 1512.59 264.843 1465.71 264.843 1408.51C264.843 1351.77 219.959 1304.9 165.089 1304.9C110.675 1304.9 66.2438 1351.31 66.2438 1408.51C66.2438 1451.57 90.7514 1488.33 126.007 1504.21L126.007 1453.04Z" fill="white"/>
<path fill-rule="evenodd" clip-rule="evenodd" d="M255.7 1050.29L169.505 1050.29C128.591 1050.29 111.25 1061.16 111.25 1088.6C111.25 1115.58 128.144 1127.86 166.385 1127.86L255.7 1127.86L255.7 1174.24L153.941 1174.24C103.676 1174.24 68.9852 1139.24 68.9852 1088.6C68.9852 1063.06 79.2135 1038.93 97.0202 1022.85C113.462 1008.17 127.692 1003.92 157.056 1003.92L255.7 1003.92L255.7 1050.29Z" fill="white"/>
<path fill-rule="evenodd" clip-rule="evenodd" d="M111.253 880.901C111.253 847.77 134.821 822.698 165.949 822.698C197.077 822.698 221.097 848.256 221.097 880.429C221.097 913.078 196.639 939.104 166.383 939.104C135.255 939.104 111.253 913.546 111.253 880.901ZM263.801 880.901C263.801 846.367 246.894 812.295 220.654 794.305C200.64 781.068 187.735 778.228 148.599 778.228C148.599 778.228 23.0529 778.183 22.8694 778.183C10.2462 778.183 3.3177e-05 788.568 3.26167e-05 801.388C3.20563e-05 814.208 10.2462 824.606 22.8694 824.606L89.0109 824.606C75.2239 843.05 68.9884 862.448 68.9884 883.268C68.9884 938.614 113.46 985.478 166.383 985.478C219.759 985.478 263.801 938.164 263.801 880.901Z" fill="white"/>
<path fill-rule="evenodd" clip-rule="evenodd" d="M262.466 1294.28C262.905 1288.41 262.905 1285.97 262.905 1282.53C262.905 1230.15 234.445 1200.78 183.299 1200.78L76.1144 1200.78L76.1144 1248.75L171.289 1248.75C207.726 1248.75 218.424 1258.53 220.645 1294.21L220.645 1294.28C220.645 1306.01 230.009 1315.5 241.549 1315.5C253.093 1315.5 262.466 1306.01 262.466 1294.28Z" fill="white"/>
</g>
</svg>
