<svg width="14" height="24" viewBox="0 0 14 24" fill="none" xmlns="http://www.w3.org/2000/svg">
<path d="M12.6203 8.40003H9.39507V6.00003C9.39507 4.76164 9.50781 3.98164 11.4929 3.98164H12.6578C13.3987 3.98164 14 3.44404 14 2.78164V1.27684C14 0.649244 13.4618 0.112845 12.7612 0.0708448C11.9505 0.0216449 11.1385 -0.00115504 10.3252 4.49625e-05C6.68392 4.49625e-05 4.02646 1.98844 4.02646 5.63883V8.40003H1.34215C0.601285 8.40003 0 8.93763 0 9.60003V12C0 12.6624 0.601285 13.2 1.34215 13.2L4.02646 13.1988V22.8C4.02646 23.4624 4.62774 24 5.36861 24H8.05292C8.79379 24 9.39507 23.4624 9.39507 22.8V13.1964L12.3129 13.1952C12.9947 13.1952 13.5678 12.738 13.6457 12.132L13.953 9.73683C14.0456 9.02523 13.4229 8.40003 12.6203 8.40003Z" fill="white"/>
</svg>
