<svg width="21" height="24" viewBox="0 0 21 24" fill="none" xmlns="http://www.w3.org/2000/svg">
<path d="M20.9887 6.00927C19.6225 6.00927 18.362 5.55482 17.3497 4.78817C16.1887 3.90931 15.3546 2.62014 15.06 1.13425C14.9871 0.767121 14.9478 0.388255 14.9441 0H11.0413V10.7078L11.0367 16.5729C11.0367 18.141 10.0197 19.4705 8.61002 19.9381C8.20091 20.0738 7.75906 20.1381 7.29898 20.1128C6.71172 20.0804 6.1614 19.9024 5.68309 19.6151C4.66521 19.0039 3.97508 17.895 3.95638 16.6264C3.92692 14.6438 5.52318 13.0274 7.49629 13.0274C7.88577 13.0274 8.25982 13.0913 8.61002 13.2073V10.2806V9.22846C8.24065 9.17353 7.86473 9.14489 7.4846 9.14489C5.32493 9.14489 3.30507 10.0463 1.86124 11.6702C0.769948 12.8974 0.115361 14.4631 0.0143679 16.1048C-0.117952 18.2616 0.668019 20.3118 2.19227 21.8245C2.41623 22.0465 2.65142 22.2526 2.89735 22.4428C4.20419 23.4526 5.80185 24 7.4846 24C7.86473 24 8.24065 23.9718 8.61002 23.9169C10.182 23.6831 11.6323 22.9606 12.7769 21.8245C14.1834 20.4287 14.9604 18.5757 14.9689 16.6034L14.9488 7.84492C15.6197 8.36462 16.3533 8.79466 17.1407 9.12846C18.3652 9.64723 19.6637 9.91014 20.9999 9.90967V7.06418V6.00833C21.0009 6.00927 20.9897 6.00927 20.9887 6.00927Z" fill="white"/>
</svg>
