<svg width="29" height="24" viewBox="0 0 29 24" fill="none" xmlns="http://www.w3.org/2000/svg">
<path d="M29 2.83173C27.9144 3.32212 26.8241 3.69231 25.6157 3.81731C26.8241 3.07692 27.7917 1.84615 28.2731 0.490385C27.0648 1.23077 25.8564 1.72115 24.5301 1.97115C23.3218 0.740385 21.75 0 20.0602 0C16.7939 0 14.1366 2.70673 14.1366 6.02885C14.1366 6.52404 14.1366 7.01442 14.2593 7.38462C9.30322 7.13942 4.95606 4.79808 2.05322 1.10577C1.44906 1.97115 1.20833 3.07692 1.20833 4.18269C1.20833 6.27885 2.29395 8.125 3.86572 9.23077C2.89811 9.10577 1.93522 8.86058 1.20833 8.49039C1.20833 8.49039 1.20833 8.49039 1.20833 8.61539C1.20833 11.5673 3.26156 14.0288 5.91895 14.524C5.4375 14.6442 4.95606 14.7692 4.35189 14.7692C3.98844 14.7692 3.625 14.7692 3.26156 14.6442C3.98844 17.1058 6.16439 18.8317 8.82178 18.8317C6.76856 20.4327 4.22917 21.4135 1.44906 21.4135C0.96761 21.4135 0.481446 21.4135 0 21.2933C2.65739 23.0144 5.80094 24 9.0625 24C20.0602 24 25.9792 14.7692 25.9792 6.76923C25.9792 6.52404 25.9792 6.27885 25.9792 6.02885C27.1875 5.16827 28.1551 4.0625 29 2.83173Z" fill="white"/>
</svg>
